<svg width="34" height="34" viewBox="0 0 34 34" fill="none" xmlns="http://www.w3.org/2000/svg">
<path d="M13.8643 10.5794L13.8646 10.5801C14.0492 10.9914 14.3564 11.7395 14.603 12.34L14.6064 12.3485C14.7034 12.5846 14.7911 12.7982 14.8596 12.9627C14.8938 13.0451 14.9227 13.1138 14.9452 13.1661C14.9564 13.1923 14.9656 13.2134 14.9728 13.2294C14.9806 13.247 14.9838 13.2534 14.9835 13.2529M13.8643 10.5794L15.0141 14.3311C15.2292 13.8903 15.1105 13.5056 14.9835 13.2529M13.8643 10.5794C13.7033 10.2221 13.5054 9.96492 13.2439 9.81333M13.8643 10.5794L13.2439 9.81333M14.9835 13.2529C14.9835 13.2529 14.9835 13.2528 14.9835 13.2528L14.5367 13.4772M14.9835 13.2529L14.5367 13.4772M24.8549 20.0787C24.7567 19.9131 24.6134 19.8098 24.5037 19.7428C24.3978 19.6781 24.2714 19.6175 24.1562 19.5623L24.1421 19.5555L23.9259 20.0064L24.1421 19.5555C24.0794 19.5254 24.0152 19.4946 23.9469 19.4607L23.9469 19.4606C23.7624 19.3689 23.2209 19.1028 22.6831 18.844C22.1597 18.592 21.5997 18.3271 21.4042 18.2541L21.4041 18.2541C21.2468 18.1954 20.9933 18.1018 20.724 18.1336C20.4022 18.1715 20.1662 18.3647 19.9936 18.6262C19.7672 18.9598 19.0943 19.7449 18.8742 20.0006L18.8741 20.0006C18.8614 20.0153 18.8513 20.0255 18.8439 20.0323C18.8406 20.0316 18.8367 20.0307 18.8324 20.0296C18.802 20.0219 18.7543 20.0049 18.6838 19.9699C18.6121 19.9342 18.5207 19.8948 18.4297 19.8555L18.4195 19.8511L18.4184 19.8506C17.9221 19.6365 16.9648 19.2235 15.8573 18.2375L15.8565 18.2367C14.8297 17.3268 14.1257 16.1881 13.9249 15.842C13.9178 15.8297 13.9126 15.8196 13.9088 15.8114C13.9094 15.8107 13.91 15.81 13.9106 15.8092C13.9314 15.7835 13.959 15.7551 14.0063 15.708L14.0065 15.7078C14.1265 15.5883 14.2591 15.4281 14.3721 15.2915L14.382 15.2794C14.4515 15.1955 14.5162 15.1174 14.5773 15.0472L14.5774 15.0471C14.7824 14.8117 14.8747 14.6201 14.9708 14.4205L14.9751 14.4118L14.9751 14.4117L15.014 14.3312L21.7479 23.7935L21.7943 24.2913C22.2461 24.2492 22.8654 23.9815 23.3887 23.6445C23.9054 23.3117 24.4726 22.8196 24.6848 22.234L24.686 22.2305C24.851 21.7645 24.9353 21.3286 24.9651 20.9798C24.98 20.8059 24.982 20.6461 24.9713 20.5099C24.9627 20.4004 24.9412 20.2241 24.8549 20.0787ZM24.8549 20.0787L24.4249 20.3338L24.8548 20.0785C24.8549 20.0786 24.8549 20.0786 24.8549 20.0787ZM14.5367 13.4772C14.4968 13.3978 14.3375 13.0099 14.1439 12.5384L14.1439 12.5384C13.8951 11.9325 13.5897 11.1888 13.4084 10.7848C13.135 10.1779 12.8477 10.1639 12.5885 10.157L14.5367 13.4772ZM10.4841 10.3301L10.4841 10.3301L10.4841 10.3301ZM10.4841 10.3301C10.0786 10.7587 9.13804 11.7565 9.13804 13.6377C9.13804 14.6308 9.49476 15.5799 9.85616 16.2941C10.2209 17.015 10.6126 17.5391 10.7224 17.686L10.7225 17.6861L10.4841 10.3301ZM13.2439 9.81333C12.9918 9.66719 12.7442 9.66081 12.6134 9.65744M13.2439 9.81333L12.6134 9.65744M12.6134 9.65744C12.61 9.65736 12.6066 9.65727 12.6033 9.65718M12.6134 9.65744L12.6033 9.65718M12.6033 9.65718C12.3852 9.65002 12.1339 9.65002 11.8931 9.65002H11.8877C11.528 9.65002 10.9935 9.78188 10.547 10.2633L12.6033 9.65718ZM10.549 28.7735C10.4375 28.7131 10.3072 28.6973 10.1845 28.7294L3.65745 30.4342C3.60777 30.4472 3.56269 30.4015 3.57633 30.352L5.31969 24.0238C5.3553 23.8946 5.33751 23.7565 5.27032 23.6405C4.07852 21.5827 3.45166 19.2492 3.45252 16.8743V16.8741C3.45252 9.41009 9.56157 3.33301 17.0595 3.33301C20.7047 3.33301 24.117 4.74547 26.6862 7.30267C29.2548 9.8594 30.6667 13.2613 30.6667 16.881C30.6667 24.3449 24.5577 30.422 17.0596 30.422H17.0526C14.7744 30.422 12.5366 29.8501 10.549 28.7735ZM10.73 17.6961L10.73 17.6962L10.73 17.6961Z" fill="#5D5D5D" stroke="#5D5D5D" stroke-linejoin="round"/>
</svg>
